<?xml version="1.0" encoding="UTF-8"?>
<svg width="73px" height="107px" viewBox="0 0 73 107" version="1.1" xmlns="http://www.w3.org/2000/svg" xmlns:xlink="http://www.w3.org/1999/xlink">
    <!-- Generator: Sketch 51.3 (57544) - http://www.bohemiancoding.com/sketch -->
    <title>lightbulb</title>
    <desc>Created with Sketch.</desc>
    <defs></defs>
    <g id="Page-1" stroke="none" stroke-width="1" fill="none" fill-rule="evenodd">
        <g id="Desktop" transform="translate(-579.000000, -256.000000)" fill-rule="nonzero">
            <g id="Group-2" transform="translate(167.000000, 256.000000)">
                <g id="lightbulb" transform="translate(412.000000, 0.000000)">
                    <path d="M56.4077161,80 L16.5896001,80 L16.5896001,76.6680265 C16.5264122,71.2885488 14.3415681,66.154739 10.514648,62.3899994 C-3.62324596,47.9980866 -3.48633883,24.8296449 10.8192462,10.6061204 C25.1256413,-3.61659088 48.1981462,-3.52304177 62.3895067,10.8151822 C76.5800574,25.1542193 76.530641,48.3234746 62.2777128,62.5998746 C58.5237019,66.3101119 56.4093365,71.3780304 56.4077161,76.6680265 L56.4077161,80 Z" id="Shape" fill="#FFCB5A"></path>
                    <path d="M20.25,87 L52.75,87 C54.5455933,87 56,88.5662841 56,90.5 C56,92.4328614 54.5455933,94 52.75,94 L20.25,94 C18.4552003,94 17,92.4328614 17,90.5 C17,88.5662841 18.4552003,87 20.25,87 Z" id="Shape" fill="#62808C"></path>
                    <path d="M26.25,100 L45.75,100 C47.5455933,100 49,101.566284 49,103.5 C49,105.432861 47.5455933,107 45.75,107 L26.25,107 C24.4552003,107 23,105.432861 23,103.5 C23,101.566284 24.4552003,100 26.25,100 Z" id="Shape" fill="#62808C"></path>
                    <g id="Group" transform="translate(13.000000, 34.000000)" fill="#FFFFFF">
                        <polygon id="Shape" points="0.0146873956 0.0326388889 6.69913184 0.0326388889 6.69913184 6.71708333 0.0146873956 6.71708333"></polygon>
                        <polygon id="Shape" points="13.3835763 6.71708333 20.0680207 6.71708333 20.0680207 46.82375 26.7524652 46.82375 26.7524652 6.71708333 33.4369096 6.71708333 33.4369096 0.0326388889 13.3835763 0.0326388889"></polygon>
                        <polygon id="Shape" points="40.1213541 0.0326388889 46.8057985 0.0326388889 46.8057985 6.71708333 40.1213541 6.71708333"></polygon>
                    </g>
                </g>
            </g>
        </g>
    </g>
</svg>